<svg width="16" height="16" viewBox="0 0 16 16" fill="none" xmlns="http://www.w3.org/2000/svg">
<path fill-rule="evenodd" clip-rule="evenodd" d="M4.97663 0.710656C5.75863 0.674656 6.00796 0.666656 7.99996 0.666656C9.99196 0.666656 10.2413 0.675323 11.0226 0.710656C11.804 0.74599 12.3373 0.870657 12.804 1.05132C13.2926 1.23599 13.736 1.52466 14.1026 1.89799C14.476 2.26399 14.764 2.70666 14.948 3.19599C15.1293 3.66266 15.2533 4.19599 15.2893 4.97599C15.3253 5.75932 15.3333 6.00866 15.3333 7.99999C15.3333 9.99199 15.3246 10.2413 15.2893 11.0233C15.254 11.8033 15.1293 12.3367 14.948 12.8033C14.764 13.2927 14.4755 13.7361 14.1026 14.1027C13.736 14.476 13.2926 14.764 12.804 14.948C12.3373 15.1293 11.804 15.2533 11.024 15.2893C10.2413 15.3253 9.99196 15.3333 7.99996 15.3333C6.00796 15.3333 5.75863 15.3247 4.97663 15.2893C4.19663 15.254 3.66329 15.1293 3.19663 14.948C2.70724 14.764 2.26384 14.4755 1.89729 14.1027C1.52421 13.7364 1.2355 13.2932 1.05129 12.804C0.870626 12.3373 0.746626 11.804 0.710626 11.024C0.674626 10.2407 0.666626 9.99132 0.666626 7.99999C0.666626 6.00799 0.675293 5.75866 0.710626 4.97732C0.745959 4.19599 0.870626 3.66266 1.05129 3.19599C1.23577 2.70671 1.52471 2.26353 1.89796 1.89732C2.26399 1.52432 2.70694 1.23562 3.19596 1.05132C3.66263 0.870657 4.19596 0.746656 4.97596 0.710656H4.97663ZM10.9633 2.03066C10.19 1.99532 9.95796 1.98799 7.99996 1.98799C6.04196 1.98799 5.80996 1.99532 5.03663 2.03066C4.32129 2.06332 3.93329 2.18266 3.67463 2.28332C3.33263 2.41666 3.08796 2.57466 2.83129 2.83132C2.58799 3.06802 2.40075 3.35618 2.28329 3.67466C2.18263 3.93332 2.06329 4.32132 2.03063 5.03666C1.99529 5.80999 1.98796 6.04199 1.98796 7.99999C1.98796 9.95799 1.99529 10.19 2.03063 10.9633C2.06329 11.6787 2.18263 12.0667 2.28329 12.3253C2.40063 12.6433 2.58796 12.932 2.83129 13.1687C3.06796 13.412 3.35663 13.5993 3.67463 13.7167C3.93329 13.8173 4.32129 13.9367 5.03663 13.9693C5.80996 14.0047 6.04129 14.012 7.99996 14.012C9.95863 14.012 10.19 14.0047 10.9633 13.9693C11.6786 13.9367 12.0666 13.8173 12.3253 13.7167C12.6673 13.5833 12.912 13.4253 13.1686 13.1687C13.412 12.932 13.5993 12.6433 13.7166 12.3253C13.8173 12.0667 13.9366 11.6787 13.9693 10.9633C14.0046 10.19 14.012 9.95799 14.012 7.99999C14.012 6.04199 14.0046 5.80999 13.9693 5.03666C13.9366 4.32132 13.8173 3.93332 13.7166 3.67466C13.5833 3.33266 13.4253 3.08799 13.1686 2.83132C12.9319 2.58804 12.6438 2.4008 12.3253 2.28332C12.0666 2.18266 11.6786 2.06332 10.9633 2.03066ZM7.06329 10.2607C7.5864 10.4784 8.16888 10.5078 8.71124 10.3438C9.25361 10.1798 9.72222 9.8326 10.037 9.36148C10.3518 8.89037 10.4933 8.32457 10.4373 7.76073C10.3813 7.19688 10.1313 6.66997 9.72996 6.26999C9.47412 6.01431 9.16477 5.81853 8.82418 5.69675C8.48359 5.57498 8.12024 5.53023 7.76029 5.56573C7.40033 5.60124 7.05273 5.71611 6.7425 5.90208C6.43226 6.08805 6.16712 6.34049 5.96616 6.64122C5.7652 6.94196 5.63342 7.28352 5.5803 7.6413C5.52719 7.99908 5.55406 8.36418 5.65899 8.71033C5.76391 9.05648 5.94428 9.37506 6.18711 9.64314C6.42993 9.91121 6.72918 10.1221 7.06329 10.2607ZM5.33463 5.33466C5.68464 4.98464 6.10017 4.70699 6.55749 4.51756C7.01481 4.32814 7.50496 4.23064 7.99996 4.23064C8.49496 4.23064 8.98511 4.32814 9.44243 4.51756C9.89974 4.70699 10.3153 4.98464 10.6653 5.33466C11.0153 5.68467 11.293 6.1002 11.4824 6.55752C11.6718 7.01484 11.7693 7.50499 11.7693 7.99999C11.7693 8.49499 11.6718 8.98514 11.4824 9.44246C11.293 9.89978 11.0153 10.3153 10.6653 10.6653C9.9584 11.3722 8.99965 11.7693 7.99996 11.7693C7.00027 11.7693 6.04152 11.3722 5.33463 10.6653C4.62774 9.95843 4.23061 8.99968 4.23061 7.99999C4.23061 7.0003 4.62774 6.04155 5.33463 5.33466ZM12.6053 4.79199C12.692 4.71017 12.7615 4.61178 12.8095 4.50264C12.8575 4.3935 12.8832 4.27584 12.8849 4.15661C12.8866 4.03738 12.8644 3.91902 12.8196 3.80853C12.7748 3.69804 12.7082 3.59766 12.6239 3.51335C12.5396 3.42903 12.4392 3.36249 12.3288 3.31767C12.2183 3.27284 12.0999 3.25064 11.9807 3.25238C11.8614 3.25412 11.7438 3.27976 11.6346 3.32779C11.5255 3.37582 11.4271 3.44525 11.3453 3.53199C11.1862 3.70068 11.099 3.92474 11.1024 4.15661C11.1058 4.38848 11.1994 4.60991 11.3634 4.77388C11.5274 4.93786 11.7488 5.03148 11.9807 5.03486C12.2125 5.03824 12.4366 4.95112 12.6053 4.79199Z" fill="black"/>
</svg>
